<svg xmlns="http://www.w3.org/2000/svg" xmlns:xlink="http://www.w3.org/1999/xlink" width="250" zoomAndPan="magnify" viewBox="0 0 187.5 41.25" height="55" preserveAspectRatio="xMidYMid meet" version="1.0"><defs><g/><clipPath id="3014b63c24"><path d="M 1.429688 3.457031 L 36.785156 3.457031 L 36.785156 37.339844 L 1.429688 37.339844 Z M 1.429688 3.457031 " clip-rule="nonzero"/></clipPath><clipPath id="290b9ba4b9"><path d="M 39 0 L 185.582031 0 L 185.582031 27 L 39 27 Z M 39 0 " clip-rule="nonzero"/></clipPath><clipPath id="ffadf7373a"><path d="M 146 20 L 146.582031 20 L 146.582031 21 L 146 21 Z M 146 20 " clip-rule="nonzero"/></clipPath><clipPath id="c20be1986a"><rect x="0" width="147" y="0" height="27"/></clipPath><clipPath id="114405fa0e"><path d="M 38 20 L 185.582031 20 L 185.582031 40.511719 L 38 40.511719 Z M 38 20 " clip-rule="nonzero"/></clipPath><clipPath id="e9c8b6ef9c"><rect x="0" width="148" y="0" height="21"/></clipPath></defs><g clip-path="url(#3014b63c24)"><path fill="#d8912a" d="M 15.566406 35.085938 C 8.042969 29.988281 3.730469 27.191406 1.953125 26.257812 C 1.65625 26.101562 1.425781 25.96875 1.445312 25.96875 C 1.597656 25.964844 2.664062 26.433594 5.035156 27.554688 C 7.191406 28.570312 7.445312 28.710938 16.730469 34.15625 C 17.414062 34.558594 18.03125 34.917969 18.097656 34.953125 C 18.210938 35.011719 18.535156 34.847656 21.5625 33.207031 C 30.851562 28.175781 30.824219 28.191406 33.847656 26.972656 C 35.222656 26.421875 36.367188 25.96875 36.394531 25.96875 C 36.417969 25.96875 36.195312 26.101562 35.894531 26.257812 C 33.632812 27.453125 26.410156 31.914062 19.792969 36.195312 C 19.097656 36.648438 18.5 37.015625 18.46875 37.015625 C 18.4375 37.011719 17.128906 36.144531 15.566406 35.085938 M 17.976562 32.996094 L 17.328125 32.65625 L 17.328125 4.722656 L 18.410156 4.105469 C 19.003906 3.769531 19.511719 3.492188 19.53125 3.492188 C 19.554688 3.492188 19.566406 10.101562 19.558594 18.183594 L 19.546875 32.875 L 19.113281 33.101562 C 18.875 33.226562 18.667969 33.332031 18.652344 33.332031 C 18.636719 33.332031 18.332031 33.179688 17.976562 32.996094 M 20.277344 24.875 L 20.277344 17.21875 L 21.957031 16.382812 L 21.957031 31.636719 L 21.453125 31.898438 C 21.179688 32.042969 20.800781 32.242188 20.617188 32.34375 L 20.277344 32.53125 L 20.277344 24.875 M 16.609375 32.292969 L 16.378906 32.175781 L 16.378906 5.308594 L 16.648438 5.15625 L 16.921875 5.003906 L 16.921875 18.707031 C 16.921875 26.246094 16.902344 32.410156 16.878906 32.410156 C 16.859375 32.410156 16.734375 32.355469 16.609375 32.292969 M 14.929688 31.421875 L 14.269531 31.089844 L 14.269531 17.914062 C 14.269531 10.667969 14.277344 4.738281 14.289062 4.738281 C 14.304688 4.738281 14.613281 4.871094 14.980469 5.027344 L 15.648438 5.320312 L 15.660156 18.542969 C 15.667969 25.8125 15.65625 31.761719 15.632812 31.761719 C 15.613281 31.757812 15.296875 31.605469 14.929688 31.421875 M 22.714844 30.40625 L 22.714844 29.589844 L 22.863281 29.617188 C 22.945312 29.636719 23.328125 29.6875 23.714844 29.734375 C 24.839844 29.867188 24.769531 29.847656 24.769531 30.046875 C 24.769531 30.21875 24.75 30.230469 23.78125 30.722656 C 23.238281 30.996094 22.777344 31.222656 22.753906 31.222656 C 22.730469 31.222656 22.714844 30.855469 22.714844 30.40625 M 12.953125 30.433594 L 12.371094 30.136719 L 12.371094 28.738281 L 12.65625 28.632812 C 12.8125 28.574219 13.105469 28.460938 13.308594 28.386719 L 13.671875 28.25 L 13.671875 29.492188 C 13.671875 30.453125 13.65625 30.734375 13.605469 30.730469 C 13.566406 30.730469 13.273438 30.597656 12.953125 30.433594 M 11.816406 29.863281 L 11.613281 29.757812 L 11.621094 18.507812 L 11.625 7.257812 L 12.046875 6.890625 L 12.046875 18.433594 C 12.046875 24.78125 12.042969 29.976562 12.035156 29.972656 C 12.027344 29.972656 11.929688 29.921875 11.816406 29.863281 M 25.429688 26.527344 C 25.433594 24.6875 25.449219 23.28125 25.460938 23.40625 L 25.480469 23.632812 L 26.113281 23.777344 C 26.460938 23.855469 26.777344 23.929688 26.8125 23.941406 C 26.886719 23.964844 26.914062 24.613281 26.839844 24.613281 C 26.820312 24.613281 26.515625 24.554688 26.164062 24.480469 C 25.8125 24.40625 25.515625 24.34375 25.5 24.34375 C 25.484375 24.34375 25.472656 24.453125 25.472656 24.585938 C 25.472656 24.792969 25.492188 24.832031 25.597656 24.859375 C 25.664062 24.875 25.972656 24.941406 26.285156 25.007812 L 26.855469 25.132812 L 26.871094 25.496094 C 26.878906 25.699219 26.863281 25.859375 26.835938 25.859375 C 26.808594 25.859375 26.550781 25.8125 26.257812 25.753906 C 25.96875 25.691406 25.671875 25.644531 25.601562 25.644531 C 25.480469 25.644531 25.46875 25.660156 25.484375 25.871094 L 25.5 26.097656 L 26.179688 26.238281 L 26.855469 26.375 L 26.867188 27.757812 L 26.882812 29.136719 L 26.191406 29.488281 C 25.8125 29.683594 25.484375 29.847656 25.460938 29.859375 C 25.4375 29.871094 25.425781 28.371094 25.429688 26.527344 M 10.410156 29.160156 C 9.929688 28.917969 9.882812 28.878906 9.882812 28.738281 C 9.882812 28.597656 9.917969 28.574219 10.382812 28.390625 C 10.660156 28.28125 10.925781 28.175781 10.980469 28.160156 C 11.066406 28.125 11.074219 28.175781 11.074219 28.777344 C 11.074219 29.269531 11.054688 29.433594 11.007812 29.433594 C 10.96875 29.429688 10.699219 29.308594 10.410156 29.160156 M 23.796875 29.128906 C 23.273438 29.0625 22.816406 29.007812 22.78125 29.003906 C 22.699219 29 22.683594 28.1875 22.765625 28.1875 C 22.875 28.1875 24.734375 28.460938 24.753906 28.480469 C 24.765625 28.492188 24.769531 28.671875 24.757812 28.878906 L 24.742188 29.253906 L 23.796875 29.128906 M 27.4375 27.660156 C 27.449219 26.648438 27.460938 26.488281 27.53125 26.503906 C 27.871094 26.597656 28.199219 26.675781 28.464844 26.726562 L 28.777344 26.789062 L 28.777344 27.359375 L 28.277344 27.261719 C 27.539062 27.117188 27.53125 27.117188 27.53125 27.371094 L 27.53125 27.585938 L 27.914062 27.671875 C 28.125 27.71875 28.40625 27.773438 28.539062 27.792969 C 28.765625 27.824219 28.777344 27.832031 28.777344 28.007812 C 28.777344 28.183594 28.761719 28.195312 28.128906 28.515625 C 27.769531 28.691406 27.464844 28.839844 27.453125 28.839844 C 27.4375 28.839844 27.429688 28.308594 27.4375 27.660156 M 9.300781 28.578125 L 9.125 28.496094 L 9.125 9.683594 L 9.3125 9.515625 C 9.414062 9.421875 9.511719 9.363281 9.527344 9.390625 C 9.566406 9.453125 9.546875 28.097656 9.507812 28.410156 L 9.476562 28.660156 L 9.300781 28.578125 M 12.371094 27.875 L 12.371094 27.507812 L 12.964844 27.253906 C 13.292969 27.113281 13.597656 26.980469 13.644531 26.964844 C 13.714844 26.9375 13.726562 26.992188 13.726562 27.308594 C 13.726562 27.550781 13.703125 27.707031 13.660156 27.742188 C 13.585938 27.796875 12.480469 28.242188 12.414062 28.242188 C 12.390625 28.242188 12.371094 28.078125 12.371094 27.875 M 9.882812 27.769531 L 9.882812 27.402344 L 10.433594 27.160156 C 10.734375 27.023438 11.003906 26.910156 11.027344 26.898438 C 11.054688 26.886719 11.074219 27.050781 11.074219 27.257812 L 11.074219 27.632812 L 10.652344 27.808594 C 10.421875 27.90625 10.15625 28.019531 10.058594 28.0625 L 9.882812 28.136719 L 9.882812 27.769531 M 29.210938 23.476562 C 29.210938 21.019531 29.230469 19.035156 29.257812 19.035156 C 29.28125 19.035156 29.554688 19.132812 29.867188 19.246094 L 30.429688 19.457031 L 30.441406 23.390625 L 30.457031 27.320312 L 29.859375 27.621094 C 29.535156 27.785156 29.253906 27.917969 29.238281 27.917969 C 29.222656 27.917969 29.210938 25.921875 29.210938 23.476562 M 24.121094 27.78125 C 23.867188 27.742188 23.449219 27.683594 23.1875 27.648438 L 22.714844 27.582031 L 22.714844 27.101562 C 22.714844 26.835938 22.730469 26.617188 22.753906 26.617188 C 22.800781 26.617188 24.472656 26.886719 24.648438 26.921875 C 24.761719 26.945312 24.769531 26.972656 24.769531 27.40625 C 24.769531 27.929688 24.839844 27.890625 24.121094 27.78125 M 12.371094 26.609375 L 12.371094 26.210938 L 12.996094 25.898438 C 13.339844 25.730469 13.644531 25.589844 13.671875 25.589844 C 13.703125 25.589844 13.726562 25.765625 13.726562 26 L 13.726562 26.410156 L 13.171875 26.667969 C 12.3125 27.070312 12.371094 27.078125 12.371094 26.609375 M 9.882812 26.566406 L 9.882812 26.1875 L 10.476562 25.886719 L 11.074219 25.589844 L 11.074219 26.378906 L 10.652344 26.585938 C 10.421875 26.703125 10.15625 26.828125 10.058594 26.871094 L 9.882812 26.945312 L 9.882812 26.566406 M 23.703125 26.167969 L 22.714844 26.011719 L 22.714844 25.550781 C 22.714844 25.140625 22.722656 25.097656 22.808594 25.125 C 22.859375 25.140625 23.269531 25.214844 23.714844 25.292969 C 24.160156 25.367188 24.582031 25.441406 24.648438 25.457031 C 24.761719 25.480469 24.769531 25.511719 24.769531 25.886719 C 24.769531 26.105469 24.753906 26.296875 24.730469 26.308594 C 24.707031 26.320312 24.246094 26.257812 23.703125 26.167969 M 28.128906 26.183594 C 27.597656 26.058594 27.53125 26.058594 27.527344 26.171875 C 27.523438 26.234375 27.507812 26.222656 27.476562 26.132812 C 27.414062 25.9375 27.414062 25.304688 27.476562 25.210938 C 27.523438 25.140625 27.53125 25.140625 27.53125 25.222656 C 27.53125 25.320312 27.65625 25.367188 28.355469 25.515625 L 28.777344 25.609375 L 28.777344 25.949219 C 28.777344 26.351562 28.796875 26.34375 28.128906 26.183594 M 9.882812 25.324219 L 9.882812 24.949219 L 10.445312 24.644531 C 10.753906 24.480469 11.023438 24.34375 11.042969 24.34375 C 11.058594 24.34375 11.074219 24.511719 11.074219 24.71875 L 11.074219 25.09375 L 10.511719 25.394531 C 10.199219 25.5625 9.933594 25.699219 9.914062 25.699219 C 9.898438 25.699219 9.882812 25.527344 9.882812 25.324219 M 12.371094 25.265625 L 12.371094 24.832031 L 13.019531 24.507812 C 13.378906 24.328125 13.683594 24.179688 13.699219 24.179688 C 13.714844 24.179688 13.726562 24.375 13.726562 24.613281 L 13.726562 25.046875 L 13.078125 25.371094 C 12.71875 25.550781 12.417969 25.699219 12.402344 25.699219 C 12.386719 25.699219 12.371094 25.503906 12.371094 25.265625 M 27.460938 24.914062 C 27.414062 24.640625 27.410156 24.265625 27.460938 24.21875 C 27.480469 24.199219 27.519531 24.203125 27.554688 24.226562 C 27.585938 24.253906 27.785156 24.316406 27.992188 24.367188 C 28.851562 24.574219 28.777344 24.53125 28.777344 24.832031 C 28.777344 25.152344 28.785156 25.148438 28.136719 24.992188 C 27.574219 24.859375 27.542969 24.859375 27.519531 25.007812 C 27.507812 25.09375 27.492188 25.066406 27.460938 24.914062 M 23.769531 24.699219 C 23.261719 24.605469 22.824219 24.53125 22.792969 24.53125 C 22.765625 24.53125 22.734375 24.347656 22.726562 24.109375 C 22.710938 23.707031 22.714844 23.6875 22.816406 23.71875 C 22.875 23.738281 23.332031 23.835938 23.832031 23.933594 L 24.742188 24.113281 L 24.757812 24.453125 C 24.769531 24.640625 24.757812 24.8125 24.734375 24.832031 C 24.707031 24.851562 24.273438 24.792969 23.769531 24.699219 M 9.882812 24.078125 L 9.882812 23.703125 L 10.445312 23.375 C 10.757812 23.191406 11.023438 23.042969 11.042969 23.042969 C 11.058594 23.042969 11.074219 23.222656 11.074219 23.4375 L 11.074219 23.832031 L 10.507812 24.140625 C 10.195312 24.3125 9.929688 24.453125 9.914062 24.453125 C 9.894531 24.453125 9.882812 24.285156 9.882812 24.078125 M 12.382812 23.898438 L 12.398438 23.453125 L 12.996094 23.117188 C 13.324219 22.933594 13.621094 22.777344 13.660156 22.777344 C 13.714844 22.773438 13.726562 22.878906 13.714844 23.210938 L 13.699219 23.652344 L 13.078125 23.996094 C 12.734375 24.183594 12.433594 24.339844 12.410156 24.339844 C 12.386719 24.34375 12.375 24.144531 12.382812 23.898438 M 27.464844 23.828125 C 27.421875 23.480469 27.421875 21.960938 27.46875 21.964844 C 27.488281 21.964844 27.785156 22.046875 28.128906 22.144531 L 28.75 22.324219 L 28.78125 22.925781 L 28.277344 22.796875 C 27.578125 22.617188 27.53125 22.621094 27.53125 22.851562 C 27.53125 23.082031 27.5625 23.101562 28.25 23.265625 L 28.777344 23.390625 L 28.777344 23.730469 C 28.777344 23.917969 28.757812 24.074219 28.734375 24.070312 C 28.714844 24.070312 28.453125 24.011719 28.152344 23.9375 C 27.855469 23.863281 27.597656 23.804688 27.574219 23.804688 C 27.554688 23.804688 27.53125 23.871094 27.519531 23.953125 C 27.507812 24.058594 27.492188 24.023438 27.464844 23.828125 M 23.824219 23.335938 C 23.347656 23.234375 22.902344 23.152344 22.835938 23.152344 C 22.714844 23.152344 22.714844 23.136719 22.714844 22.554688 C 22.714844 22.007812 22.722656 21.957031 22.808594 21.984375 C 22.90625 22.011719 24.699219 22.394531 24.746094 22.394531 C 24.789062 22.394531 24.773438 23.46875 24.730469 23.492188 C 24.707031 23.507812 24.300781 23.433594 23.824219 23.335938 M 26.054688 23.269531 L 25.421875 23.128906 L 25.421875 19.320312 C 25.421875 17.226562 25.433594 15.515625 25.453125 15.515625 C 25.46875 15.515625 25.796875 15.640625 26.183594 15.792969 L 26.882812 16.074219 L 26.882812 16.75 L 26.382812 16.59375 C 26.105469 16.507812 25.789062 16.414062 25.675781 16.386719 L 25.46875 16.339844 L 25.484375 16.589844 L 25.5 16.84375 L 25.878906 16.960938 C 26.089844 17.027344 26.398438 17.121094 26.570312 17.167969 L 26.882812 17.257812 L 26.882812 17.578125 C 26.882812 17.753906 26.875 17.898438 26.867188 17.898438 C 26.859375 17.898438 26.574219 17.8125 26.230469 17.710938 C 25.890625 17.605469 25.578125 17.519531 25.542969 17.519531 C 25.5 17.519531 25.472656 17.597656 25.472656 17.738281 C 25.472656 17.996094 25.496094 18.007812 26.355469 18.257812 L 26.882812 18.414062 L 26.882812 19.210938 C 26.882812 19.652344 26.875 20.011719 26.867188 20.011719 C 26.859375 20.011719 26.597656 19.9375 26.285156 19.847656 C 25.515625 19.628906 25.472656 19.632812 25.472656 19.902344 L 25.472656 20.117188 L 25.921875 20.25 C 26.167969 20.324219 26.484375 20.414062 26.625 20.449219 L 26.882812 20.511719 L 26.882812 21.082031 L 26.273438 20.925781 C 25.453125 20.71875 25.464844 20.71875 25.484375 21 L 25.5 21.230469 L 26.042969 21.371094 C 26.339844 21.445312 26.652344 21.527344 26.734375 21.546875 C 26.878906 21.582031 26.882812 21.59375 26.882812 21.960938 C 26.882812 22.226562 26.863281 22.339844 26.8125 22.339844 C 26.777344 22.339844 26.496094 22.277344 26.1875 22.203125 C 25.445312 22.023438 25.464844 22.023438 25.484375 22.300781 L 25.5 22.53125 L 26.179688 22.695312 L 26.855469 22.863281 L 26.871094 23.144531 C 26.890625 23.476562 26.941406 23.46875 26.054688 23.269531 M 9.882812 22.832031 L 9.882812 22.457031 L 10.449219 22.101562 C 10.761719 21.90625 11.03125 21.746094 11.046875 21.746094 C 11.0625 21.746094 11.074219 21.921875 11.070312 22.136719 L 11.070312 22.53125 L 10.507812 22.867188 C 10.199219 23.054688 9.933594 23.207031 9.914062 23.207031 C 9.898438 23.207031 9.882812 23.039062 9.882812 22.832031 M 12.371094 22.503906 L 12.371094 22.074219 L 13.015625 21.691406 C 13.371094 21.480469 13.675781 21.3125 13.691406 21.3125 C 13.710938 21.3125 13.726562 21.511719 13.726562 21.761719 L 13.726562 22.210938 L 13.085938 22.574219 C 12.734375 22.773438 12.429688 22.9375 12.410156 22.9375 C 12.390625 22.9375 12.371094 22.742188 12.371094 22.503906 M 9.882812 21.617188 L 9.882812 21.273438 L 11.046875 20.5 L 11.0625 20.804688 C 11.070312 20.972656 11.066406 21.140625 11.054688 21.175781 C 11.03125 21.234375 9.972656 21.960938 9.90625 21.960938 C 9.894531 21.960938 9.882812 21.804688 9.882812 21.617188 M 28.234375 21.714844 C 27.710938 21.570312 27.535156 21.550781 27.527344 21.648438 C 27.527344 21.6875 27.503906 21.667969 27.476562 21.609375 C 27.421875 21.480469 27.410156 20.925781 27.457031 20.800781 C 27.484375 20.722656 27.496094 20.722656 27.550781 20.792969 C 27.585938 20.835938 27.867188 20.945312 28.179688 21.03125 L 28.75 21.1875 L 28.765625 21.519531 C 28.773438 21.703125 28.761719 21.851562 28.738281 21.847656 C 28.714844 21.847656 28.488281 21.785156 28.234375 21.714844 M 23.832031 21.605469 C 23.390625 21.503906 22.964844 21.414062 22.882812 21.402344 L 22.742188 21.382812 L 22.726562 20.828125 C 22.710938 20.328125 22.71875 20.273438 22.796875 20.304688 C 22.917969 20.347656 23.832031 20.574219 24.351562 20.6875 L 24.769531 20.78125 L 24.769531 21.289062 C 24.769531 21.664062 24.753906 21.796875 24.703125 21.792969 C 24.664062 21.792969 24.273438 21.707031 23.832031 21.605469 M 12.375 21.167969 L 12.375 20.742188 L 12.960938 20.378906 C 13.785156 19.867188 13.726562 19.871094 13.726562 20.355469 L 13.726562 20.761719 L 13.253906 21.054688 C 12.992188 21.214844 12.6875 21.398438 12.574219 21.46875 L 12.371094 21.589844 L 12.375 21.167969 M 9.882812 20.402344 L 9.882812 20.03125 L 10.445312 19.640625 C 10.757812 19.429688 11.023438 19.253906 11.042969 19.253906 C 11.058594 19.253906 11.074219 19.417969 11.074219 19.621094 L 11.074219 19.992188 L 10.507812 20.378906 C 10.199219 20.59375 9.929688 20.769531 9.914062 20.769531 C 9.898438 20.769531 9.882812 20.605469 9.882812 20.402344 M 28.289062 20.601562 C 28.097656 20.542969 27.847656 20.476562 27.734375 20.449219 C 27.539062 20.402344 27.53125 20.40625 27.523438 20.546875 C 27.519531 20.6875 27.519531 20.6875 27.476562 20.527344 C 27.417969 20.292969 27.414062 19.699219 27.472656 19.660156 C 27.5 19.644531 27.53125 19.65625 27.542969 19.6875 C 27.550781 19.71875 27.828125 19.824219 28.15625 19.921875 L 28.75 20.097656 L 28.765625 20.40625 C 28.785156 20.761719 28.800781 20.753906 28.289062 20.601562 M 12.371094 19.507812 L 12.371094 18.785156 L 12.980469 18.363281 C 13.316406 18.128906 13.621094 17.925781 13.660156 17.914062 C 13.710938 17.894531 13.726562 18.058594 13.726562 18.644531 L 13.726562 19.398438 L 13.078125 19.8125 C 12.722656 20.042969 12.417969 20.226562 12.402344 20.226562 C 12.386719 20.226562 12.371094 19.902344 12.371094 19.507812 M 23.824219 19.957031 C 23.347656 19.839844 22.902344 19.746094 22.835938 19.742188 C 22.71875 19.742188 22.714844 19.71875 22.714844 19.304688 C 22.714844 18.972656 22.730469 18.871094 22.78125 18.890625 C 22.816406 18.90625 23.28125 19.023438 23.808594 19.152344 L 24.769531 19.386719 L 24.769531 19.78125 C 24.769531 19.996094 24.753906 20.171875 24.730469 20.167969 C 24.707031 20.167969 24.300781 20.070312 23.824219 19.957031 M 28.164062 19.453125 C 27.707031 19.324219 27.570312 19.300781 27.535156 19.355469 C 27.464844 19.472656 27.425781 19.214844 27.425781 18.613281 C 27.421875 17.960938 27.339844 17.984375 28.207031 18.390625 L 28.777344 18.65625 L 28.777344 19.144531 C 28.777344 19.414062 28.769531 19.628906 28.761719 19.628906 C 28.753906 19.625 28.484375 19.546875 28.164062 19.453125 M 9.894531 19.136719 L 9.910156 18.746094 L 10.492188 18.320312 L 11.074219 17.898438 L 11.074219 18.703125 L 10.511719 19.113281 C 10.199219 19.339844 9.929688 19.523438 9.910156 19.523438 C 9.894531 19.523438 9.882812 19.347656 9.894531 19.136719 M 23.714844 18.535156 C 23.238281 18.414062 22.816406 18.308594 22.78125 18.296875 C 22.734375 18.285156 22.714844 18.152344 22.714844 17.855469 L 22.714844 17.429688 L 23.726562 17.707031 L 24.742188 17.984375 L 24.757812 18.375 C 24.773438 18.722656 24.765625 18.765625 24.679688 18.761719 C 24.625 18.757812 24.191406 18.65625 23.714844 18.535156 M 9.882812 17.804688 L 9.882812 17.316406 L 10.445312 16.90625 C 10.753906 16.675781 11.023438 16.492188 11.042969 16.492188 C 11.058594 16.492188 11.074219 16.691406 11.074219 16.9375 L 11.074219 17.386719 L 10.679688 17.6875 C 10.464844 17.851562 10.195312 18.054688 10.085938 18.140625 L 9.882812 18.292969 L 9.882812 17.804688 M 12.371094 17.75 L 12.371094 17.214844 L 13.019531 16.746094 C 13.371094 16.484375 13.675781 16.273438 13.695312 16.273438 C 13.710938 16.273438 13.726562 16.511719 13.726562 16.804688 L 13.726562 17.335938 L 13.496094 17.5 C 13.371094 17.589844 13.066406 17.800781 12.820312 17.972656 L 12.371094 18.289062 L 12.371094 17.75 M 23.714844 17.101562 C 23.238281 16.96875 22.816406 16.847656 22.78125 16.839844 C 22.738281 16.828125 22.714844 16.726562 22.714844 16.582031 L 22.714844 16.34375 L 23.257812 16.113281 L 23.804688 15.878906 L 24.273438 16.011719 L 24.742188 16.140625 L 24.757812 16.75 C 24.773438 17.304688 24.765625 17.355469 24.675781 17.355469 C 24.625 17.351562 24.191406 17.238281 23.714844 17.101562 M 9.882812 16.453125 L 9.886719 16.085938 L 10.40625 15.679688 C 11.132812 15.113281 11.074219 15.125 11.074219 15.558594 L 11.074219 15.929688 L 10.519531 16.359375 C 10.214844 16.597656 9.945312 16.796875 9.921875 16.804688 C 9.902344 16.816406 9.882812 16.65625 9.882812 16.453125 M 12.375 15.996094 L 12.375 15.273438 L 13.019531 14.769531 C 13.375 14.496094 13.679688 14.269531 13.695312 14.269531 C 13.714844 14.269531 13.726562 14.59375 13.726562 14.988281 L 13.726562 15.710938 L 13.257812 16.058594 C 13 16.25 12.695312 16.480469 12.578125 16.5625 L 12.371094 16.714844 L 12.375 15.996094 M 20.277344 11.746094 L 20.277344 7.453125 L 21.277344 7.859375 L 21.292969 11.390625 C 21.300781 13.332031 21.324219 14.921875 21.347656 14.921875 C 21.371094 14.921875 21.78125 14.753906 22.257812 14.550781 C 22.734375 14.347656 23.152344 14.191406 23.191406 14.203125 C 23.226562 14.214844 23.253906 14.203125 23.253906 14.179688 C 23.253906 14.152344 23.320312 14.132812 23.402344 14.136719 C 23.515625 14.140625 23.558594 14.175781 23.570312 14.265625 C 23.582031 14.34375 23.566406 14.378906 23.53125 14.355469 C 23.496094 14.335938 23.472656 14.34375 23.472656 14.378906 C 23.472656 14.410156 23.449219 14.425781 23.421875 14.410156 C 23.394531 14.390625 23.363281 14.398438 23.355469 14.425781 C 23.34375 14.453125 22.898438 14.675781 22.363281 14.925781 C 21.824219 15.171875 21.367188 15.40625 21.34375 15.445312 C 21.320312 15.480469 21.070312 15.632812 20.789062 15.777344 L 20.277344 16.042969 L 20.277344 11.746094 M 9.882812 15.226562 L 9.882812 14.828125 L 10.300781 14.476562 C 10.53125 14.285156 10.800781 14.058594 10.898438 13.976562 L 11.074219 13.828125 L 11.074219 14.636719 L 10.476562 15.132812 L 9.882812 15.625 L 9.882812 15.226562 M 12.375 14.339844 L 12.378906 13.917969 L 12.976562 13.429688 C 13.308594 13.164062 13.613281 12.921875 13.652344 12.898438 C 13.710938 12.863281 13.726562 12.9375 13.726562 13.277344 L 13.726562 13.703125 L 13.148438 14.160156 C 12.828125 14.414062 12.527344 14.652344 12.472656 14.691406 C 12.378906 14.761719 12.371094 14.738281 12.375 14.339844 M 9.882812 13.90625 L 9.882812 13.476562 L 10.410156 13.015625 C 10.699219 12.765625 10.96875 12.539062 11.007812 12.519531 C 11.058594 12.484375 11.074219 12.574219 11.074219 12.898438 L 11.074219 13.324219 L 10.628906 13.703125 C 10.382812 13.910156 10.117188 14.136719 10.03125 14.207031 L 9.882812 14.335938 L 9.882812 13.90625 M 12.375 12.988281 L 12.375 12.5625 L 13.019531 12.007812 C 13.378906 11.703125 13.683594 11.453125 13.699219 11.453125 C 13.714844 11.453125 13.726562 11.644531 13.726562 11.875 L 13.726562 12.296875 L 13.308594 12.648438 C 13.078125 12.839844 12.773438 13.089844 12.632812 13.207031 L 12.371094 13.414062 L 12.375 12.988281 M 9.882812 12.554688 L 9.886719 12.132812 L 10.464844 11.625 L 11.046875 11.117188 L 11.0625 11.515625 L 11.082031 11.914062 L 10.792969 12.175781 C 10.632812 12.320312 10.363281 12.558594 10.195312 12.710938 L 9.882812 12.980469 L 9.882812 12.554688 M 12.371094 11.578125 L 12.371094 11.097656 L 12.976562 10.558594 C 13.308594 10.261719 13.613281 10 13.65625 9.976562 C 13.710938 9.941406 13.726562 10.027344 13.726562 10.410156 L 13.726562 10.886719 L 13.257812 11.292969 C 13 11.515625 12.695312 11.777344 12.582031 11.878906 L 12.371094 12.058594 L 12.371094 11.578125 M 9.882812 11.25 L 9.882812 10.882812 L 11.046875 9.804688 L 11.0625 10.183594 L 11.078125 10.558594 L 10.519531 11.085938 C 10.214844 11.375 9.945312 11.613281 9.921875 11.613281 C 9.902344 11.617188 9.882812 11.453125 9.882812 11.25 M 12.371094 10.140625 L 12.371094 9.738281 L 12.996094 9.175781 C 13.339844 8.863281 13.644531 8.601562 13.671875 8.59375 C 13.703125 8.582031 13.726562 8.738281 13.726562 8.972656 L 13.722656 9.367188 L 13.09375 9.9375 C 12.75 10.25 12.445312 10.515625 12.421875 10.523438 C 12.394531 10.535156 12.371094 10.363281 12.371094 10.140625 M 9.882812 9.683594 L 9.882812 8.972656 L 10.476562 8.421875 L 11.074219 7.867188 L 11.074219 9.265625 L 10.734375 9.585938 C 10.550781 9.765625 10.28125 10.019531 10.140625 10.152344 L 9.882812 10.394531 L 9.882812 9.683594 M 12.371094 8.816406 L 12.371094 8.386719 L 13.019531 7.78125 C 13.375 7.449219 13.675781 7.175781 13.695312 7.175781 C 13.710938 7.175781 13.726562 7.355469 13.726562 7.574219 L 13.726562 7.972656 L 13.050781 8.609375 L 12.371094 9.246094 L 12.371094 8.816406 M 9.125 8.222656 C 9.125 8.089844 9.289062 7.902344 10.167969 7.039062 C 11.277344 5.945312 11.953125 5.351562 12.054688 5.378906 C 12.089844 5.386719 12.171875 5.339844 12.238281 5.277344 C 12.320312 5.203125 12.375 5.183594 12.398438 5.222656 C 12.417969 5.257812 12.402344 5.277344 12.367188 5.265625 C 12.328125 5.257812 12.296875 5.28125 12.292969 5.316406 C 12.292969 5.386719 12.222656 5.46875 12.164062 5.46875 C 12.144531 5.472656 11.640625 5.953125 11.046875 6.546875 C 10.449219 7.136719 9.773438 7.789062 9.542969 8 C 9.132812 8.371094 9.125 8.375 9.125 8.222656 M 12.371094 7.238281 L 12.371094 6.574219 L 13 5.96875 C 13.347656 5.632812 13.652344 5.351562 13.679688 5.34375 C 13.703125 5.332031 13.726562 5.601562 13.726562 5.9375 L 13.726562 6.554688 L 13.050781 7.230469 L 12.371094 7.90625 L 12.371094 7.238281 M 20.535156 6.746094 C 20.425781 6.691406 20.320312 6.660156 20.304688 6.679688 C 20.285156 6.695312 20.289062 6.671875 20.304688 6.621094 C 20.335938 6.539062 20.351562 6.539062 20.421875 6.609375 C 20.464844 6.652344 20.53125 6.6875 20.566406 6.691406 C 20.601562 6.691406 20.675781 6.726562 20.734375 6.769531 C 20.878906 6.878906 20.78125 6.867188 20.535156 6.746094 Z M 20.535156 6.746094 " fill-opacity="1" fill-rule="nonzero"/></g><g clip-path="url(#290b9ba4b9)"><g transform="matrix(1, 0, 0, 1, 39, 0.000000000000005234)"><g clip-path="url(#c20be1986a)"><g fill="#100529" fill-opacity="1"><g transform="translate(0.885934, 20.113174)"><g><path d="M 4.953125 0 L 1.640625 0 L 1.640625 -16.046875 L 4.953125 -16.046875 Z M 4.953125 0 "/></g></g></g><g fill="#100529" fill-opacity="1"><g transform="translate(9.048184, 20.113174)"><g><path d="M 14.484375 0 L 11.171875 0 L 4.734375 -10.5625 L 4.734375 0 L 1.4375 0 L 1.4375 -16.046875 L 4.734375 -16.046875 L 11.1875 -5.46875 L 11.1875 -16.046875 L 14.484375 -16.046875 Z M 14.484375 0 "/></g></g></g><g fill="#100529" fill-opacity="1"><g transform="translate(26.569877, 20.113174)"><g><path d="M 14.484375 0 L 11.171875 0 L 4.734375 -10.5625 L 4.734375 0 L 1.4375 0 L 1.4375 -16.046875 L 4.734375 -16.046875 L 11.1875 -5.46875 L 11.1875 -16.046875 L 14.484375 -16.046875 Z M 14.484375 0 "/></g></g></g><g fill="#100529" fill-opacity="1"><g transform="translate(44.09157, 20.113174)"><g><path d="M 14.625 -7.65625 C 14.625 -6.082031 14.34375 -4.695312 13.78125 -3.5 C 13.21875 -2.3125 12.414062 -1.394531 11.375 -0.75 C 10.34375 -0.101562 9.15625 0.21875 7.8125 0.21875 C 6.476562 0.21875 5.285156 -0.0976562 4.234375 -0.734375 C 3.191406 -1.378906 2.382812 -2.296875 1.8125 -3.484375 C 1.238281 -4.671875 0.953125 -6.035156 0.953125 -7.578125 L 0.953125 -8.375 C 0.953125 -9.945312 1.234375 -11.332031 1.796875 -12.53125 C 2.367188 -13.738281 3.175781 -14.660156 4.21875 -15.296875 C 5.257812 -15.941406 6.445312 -16.265625 7.78125 -16.265625 C 9.125 -16.265625 10.3125 -15.941406 11.34375 -15.296875 C 12.382812 -14.660156 13.191406 -13.738281 13.765625 -12.53125 C 14.335938 -11.332031 14.625 -9.945312 14.625 -8.375 Z M 11.265625 -8.390625 C 11.265625 -10.078125 10.960938 -11.351562 10.359375 -12.21875 C 9.753906 -13.09375 8.894531 -13.53125 7.78125 -13.53125 C 6.675781 -13.53125 5.820312 -13.097656 5.21875 -12.234375 C 4.613281 -11.378906 4.304688 -10.113281 4.296875 -8.4375 L 4.296875 -7.65625 C 4.296875 -6.019531 4.597656 -4.75 5.203125 -3.84375 C 5.804688 -2.9375 6.675781 -2.484375 7.8125 -2.484375 C 8.914062 -2.484375 9.765625 -2.921875 10.359375 -3.796875 C 10.953125 -4.671875 11.253906 -5.941406 11.265625 -7.609375 Z M 11.265625 -8.390625 "/></g></g></g><g fill="#100529" fill-opacity="1"><g transform="translate(61.017938, 20.113174)"><g><path d="M 7.359375 -3.984375 L 11 -16.046875 L 14.6875 -16.046875 L 9.09375 0 L 5.640625 0 L 0.078125 -16.046875 L 3.75 -16.046875 Z M 7.359375 -3.984375 "/></g></g></g><g fill="#100529" fill-opacity="1"><g transform="translate(76.533177, 20.113174)"><g><path d="M 10.5 -3.3125 L 4.703125 -3.3125 L 3.59375 0 L 0.078125 0 L 6.046875 -16.046875 L 9.125 -16.046875 L 15.125 0 L 11.609375 0 Z M 5.59375 -5.984375 L 9.609375 -5.984375 L 7.578125 -12 Z M 5.59375 -5.984375 "/></g></g></g><g fill="#100529" fill-opacity="1"><g transform="translate(91.982222, 20.113174)"><g><path d="M 13.515625 -13.375 L 8.59375 -13.375 L 8.59375 0 L 5.296875 0 L 5.296875 -13.375 L 0.4375 -13.375 L 0.4375 -16.046875 L 13.515625 -16.046875 Z M 13.515625 -13.375 "/></g></g></g><g fill="#100529" fill-opacity="1"><g transform="translate(107.530605, 20.113174)"><g><path d="M 4.953125 0 L 1.640625 0 L 1.640625 -16.046875 L 4.953125 -16.046875 Z M 4.953125 0 "/></g></g></g><g fill="#100529" fill-opacity="1"><g transform="translate(115.692854, 20.113174)"><g><path d="M 7.359375 -3.984375 L 11 -16.046875 L 14.6875 -16.046875 L 9.09375 0 L 5.640625 0 L 0.078125 -16.046875 L 3.75 -16.046875 Z M 7.359375 -3.984375 "/></g></g></g><g fill="#100529" fill-opacity="1"><g transform="translate(132.034971, 20.113174)"><g><path d="M 11.09375 -6.953125 L 4.734375 -6.953125 L 4.734375 -2.65625 L 12.1875 -2.65625 L 12.1875 0 L 1.4375 0 L 1.4375 -16.046875 L 12.171875 -16.046875 L 12.171875 -13.375 L 4.734375 -13.375 L 4.734375 -9.546875 L 11.09375 -9.546875 Z M 11.09375 -6.953125 "/></g></g></g><g clip-path="url(#ffadf7373a)"><g fill="#100529" fill-opacity="1"><g transform="translate(146.322693, 20.113174)"><g/></g></g></g></g></g></g><g clip-path="url(#114405fa0e)"><g transform="matrix(1, 0, 0, 1, 38, 20)"><g clip-path="url(#e9c8b6ef9c)"><g fill="#100529" fill-opacity="1"><g transform="translate(1.779688, 16.301308)"><g><path d="M 1.5 0 L 1.5 -10.328125 L 5.4375 -10.328125 C 6.15625 -10.328125 6.78125 -10.191406 7.3125 -9.921875 C 7.84375 -9.648438 8.253906 -9.265625 8.546875 -8.765625 C 8.847656 -8.273438 9 -7.6875 9 -7 C 9 -6.164062 8.78125 -5.472656 8.34375 -4.921875 C 7.914062 -4.378906 7.320312 -4.015625 6.5625 -3.828125 L 9.15625 0 L 7.59375 0 L 5.078125 -3.703125 L 2.796875 -3.703125 L 2.796875 0 Z M 2.796875 -4.9375 L 5.296875 -4.9375 C 6.054688 -4.9375 6.640625 -5.113281 7.046875 -5.46875 C 7.460938 -5.832031 7.671875 -6.34375 7.671875 -7 C 7.671875 -7.664062 7.460938 -8.179688 7.046875 -8.546875 C 6.640625 -8.910156 6.054688 -9.09375 5.296875 -9.09375 L 2.796875 -9.09375 Z M 2.796875 -4.9375 "/></g></g></g><g fill="#100529" fill-opacity="1"><g transform="translate(21.478347, 16.301308)"><g><path d="M 1.5 0 L 1.5 -10.328125 L 7.765625 -10.328125 L 7.765625 -9.109375 L 2.796875 -9.109375 L 2.796875 -5.859375 L 7.40625 -5.859375 L 7.40625 -4.65625 L 2.796875 -4.65625 L 2.796875 -1.203125 L 7.9375 -1.203125 L 7.9375 0 Z M 1.5 0 "/></g></g></g><g fill="#100529" fill-opacity="1"><g transform="translate(40.026988, 16.301308)"><g><path d="M 0.25 0 L 4.5 -10.328125 L 5.703125 -10.328125 L 9.953125 0 L 8.578125 0 L 7.609375 -2.34375 L 2.578125 -2.34375 L 1.640625 0 Z M 3.078125 -3.5625 L 7.125 -3.5625 L 5.109375 -8.515625 Z M 3.078125 -3.5625 "/></g></g></g><g fill="#100529" fill-opacity="1"><g transform="translate(59.887832, 16.301308)"><g><path d="M 1.5 0 L 1.5 -10.328125 L 2.796875 -10.328125 L 2.796875 -1.234375 L 7.8125 -1.234375 L 7.8125 0 Z M 1.5 0 "/></g></g></g><g fill="#100529" fill-opacity="1"><g transform="translate(76.136347, 16.301308)"><g><path d="M 4 0 L 4 -9.09375 L 0.5 -9.09375 L 0.5 -10.328125 L 8.78125 -10.328125 L 8.78125 -9.09375 L 5.296875 -9.09375 L 5.296875 0 Z M 4 0 "/></g></g></g><g fill="#100529" fill-opacity="1"><g transform="translate(94.360589, 16.301308)"><g><path d="M 6.1875 0.1875 C 5.144531 0.1875 4.222656 -0.0390625 3.421875 -0.5 C 2.617188 -0.957031 1.988281 -1.585938 1.53125 -2.390625 C 1.082031 -3.191406 0.859375 -4.113281 0.859375 -5.15625 C 0.859375 -6.207031 1.082031 -7.132812 1.53125 -7.9375 C 1.988281 -8.738281 2.617188 -9.367188 3.421875 -9.828125 C 4.222656 -10.285156 5.144531 -10.515625 6.1875 -10.515625 C 7.238281 -10.515625 8.164062 -10.285156 8.96875 -9.828125 C 9.769531 -9.367188 10.398438 -8.738281 10.859375 -7.9375 C 11.316406 -7.132812 11.546875 -6.207031 11.546875 -5.15625 C 11.546875 -4.113281 11.316406 -3.191406 10.859375 -2.390625 C 10.398438 -1.585938 9.769531 -0.957031 8.96875 -0.5 C 8.164062 -0.0390625 7.238281 0.1875 6.1875 0.1875 Z M 2.1875 -5.15625 C 2.1875 -4.363281 2.351562 -3.660156 2.6875 -3.046875 C 3.03125 -2.441406 3.503906 -1.96875 4.109375 -1.625 C 4.710938 -1.28125 5.40625 -1.109375 6.1875 -1.109375 C 6.988281 -1.109375 7.6875 -1.28125 8.28125 -1.625 C 8.882812 -1.96875 9.351562 -2.441406 9.6875 -3.046875 C 10.03125 -3.660156 10.203125 -4.363281 10.203125 -5.15625 C 10.203125 -5.96875 10.03125 -6.675781 9.6875 -7.28125 C 9.351562 -7.882812 8.882812 -8.359375 8.28125 -8.703125 C 7.6875 -9.046875 6.988281 -9.21875 6.1875 -9.21875 C 5.40625 -9.21875 4.710938 -9.046875 4.109375 -8.703125 C 3.503906 -8.359375 3.03125 -7.882812 2.6875 -7.28125 C 2.351562 -6.675781 2.1875 -5.96875 2.1875 -5.15625 Z M 2.1875 -5.15625 "/></g></g></g><g fill="#100529" fill-opacity="1"><g transform="translate(116.403523, 16.301308)"><g><path d="M 1.5 0 L 1.5 -10.328125 L 5.4375 -10.328125 C 6.15625 -10.328125 6.78125 -10.191406 7.3125 -9.921875 C 7.84375 -9.648438 8.253906 -9.265625 8.546875 -8.765625 C 8.847656 -8.273438 9 -7.6875 9 -7 C 9 -6.164062 8.78125 -5.472656 8.34375 -4.921875 C 7.914062 -4.378906 7.320312 -4.015625 6.5625 -3.828125 L 9.15625 0 L 7.59375 0 L 5.078125 -3.703125 L 2.796875 -3.703125 L 2.796875 0 Z M 2.796875 -4.9375 L 5.296875 -4.9375 C 6.054688 -4.9375 6.640625 -5.113281 7.046875 -5.46875 C 7.460938 -5.832031 7.671875 -6.34375 7.671875 -7 C 7.671875 -7.664062 7.460938 -8.179688 7.046875 -8.546875 C 6.640625 -8.910156 6.054688 -9.09375 5.296875 -9.09375 L 2.796875 -9.09375 Z M 2.796875 -4.9375 "/></g></g></g><g fill="#100529" fill-opacity="1"><g transform="translate(135.954734, 16.301308)"><g><path d="M 4.9375 0.1875 C 4.113281 0.1875 3.398438 0.046875 2.796875 -0.234375 C 2.191406 -0.515625 1.722656 -0.90625 1.390625 -1.40625 C 1.066406 -1.914062 0.898438 -2.503906 0.890625 -3.171875 L 2.1875 -3.171875 C 2.207031 -2.515625 2.46875 -1.992188 2.96875 -1.609375 C 3.476562 -1.234375 4.132812 -1.046875 4.9375 -1.046875 C 5.664062 -1.046875 6.242188 -1.1875 6.671875 -1.46875 C 7.097656 -1.757812 7.3125 -2.160156 7.3125 -2.671875 C 7.3125 -3.148438 7.101562 -3.535156 6.6875 -3.828125 C 6.28125 -4.117188 5.609375 -4.375 4.671875 -4.59375 C 3.398438 -4.894531 2.46875 -5.28125 1.875 -5.75 C 1.289062 -6.226562 1 -6.867188 1 -7.671875 C 1 -8.546875 1.332031 -9.238281 2 -9.75 C 2.664062 -10.257812 3.5625 -10.515625 4.6875 -10.515625 C 5.851562 -10.515625 6.769531 -10.222656 7.4375 -9.640625 C 8.113281 -9.066406 8.457031 -8.273438 8.46875 -7.265625 L 7.1875 -7.265625 C 7.175781 -7.890625 6.945312 -8.378906 6.5 -8.734375 C 6.050781 -9.097656 5.445312 -9.28125 4.6875 -9.28125 C 3.945312 -9.28125 3.367188 -9.132812 2.953125 -8.84375 C 2.535156 -8.550781 2.328125 -8.160156 2.328125 -7.671875 C 2.328125 -7.242188 2.519531 -6.882812 2.90625 -6.59375 C 3.300781 -6.3125 4 -6.046875 5 -5.796875 C 6.320312 -5.472656 7.257812 -5.066406 7.8125 -4.578125 C 8.375 -4.085938 8.65625 -3.46875 8.65625 -2.71875 C 8.65625 -1.820312 8.316406 -1.113281 7.640625 -0.59375 C 6.972656 -0.0703125 6.070312 0.1875 4.9375 0.1875 Z M 4.9375 0.1875 "/></g></g></g></g></g></g></svg>